<svg width="14" height="14" viewBox="0 0 14 14" fill="none" xmlns="http://www.w3.org/2000/svg">
<path d="M0 5.13085V11.2276C0 11.9463 0.285483 12.6355 0.793646 13.1437C1.30181 13.6518 1.99103 13.9373 2.70968 13.9373H11.2903C12.009 13.9373 12.6982 13.6518 13.2064 13.1437C13.7145 12.6355 14 11.9463 14 11.2276V3.09859C14 2.37994 13.7145 1.69073 13.2064 1.18256C12.6982 0.674399 12.009 0.388916 11.2903 0.388916H2.70968C1.99103 0.388916 1.30181 0.674399 0.793646 1.18256C0.285483 1.69073 0 2.37994 0 3.09859V5.13085ZM12.1935 11.2276C12.1935 11.4672 12.0984 11.6969 11.929 11.8663C11.7596 12.0357 11.5299 12.1309 11.2903 12.1309H2.70968C2.47013 12.1309 2.24039 12.0357 2.071 11.8663C1.90161 11.6969 1.80645 11.4672 1.80645 11.2276V6.59182L5.31323 8.34634C5.83709 8.60775 6.41454 8.74382 7 8.74382C7.58546 8.74382 8.16291 8.60775 8.68677 8.34634L12.1935 6.59182V11.2276ZM2.70968 2.19537H11.2903C11.5299 2.19537 11.7596 2.29053 11.929 2.45992C12.0984 2.6293 12.1935 2.85904 12.1935 3.09859V4.57311L7.87839 6.72956C7.60486 6.86323 7.30444 6.9327 7 6.9327C6.69556 6.9327 6.39514 6.86323 6.12161 6.72956L1.80645 4.57311V3.09859C1.80645 2.85904 1.90161 2.6293 2.071 2.45992C2.24039 2.29053 2.47013 2.19537 2.70968 2.19537Z" fill="#F8FAFC"/>
</svg>
