<svg width="32" height="32" viewBox="0 0 32 32" fill="none" xmlns="http://www.w3.org/2000/svg">
<path fill-rule="evenodd" clip-rule="evenodd" d="M30.7884 18.7913C30.7884 21.912 29.048 23.9425 28.2128 24.9128C27.0575 26.2631 25.9222 27.3133 23.3916 28.9137C22.4114 29.5388 21.1211 30.269 19.5507 31.0892C18.3852 31.6922 17.0921 32.0068 15.7798 32.0068C14.4675 32.0068 13.1744 31.6922 12.0089 31.0892C10.4535 30.274 9.17824 29.5388 8.17801 28.9137C5.6074 27.2783 4.48713 26.2281 3.48689 25.0578L3.47349 25.0423C2.52513 23.9485 0.78125 21.9372 0.78125 18.7963V7.26356C0.780785 6.12944 1.13083 5.02293 1.78348 4.09544C2.43612 3.16795 3.35947 2.46483 4.42712 2.08233C8.07153 0.764686 11.9099 0.0632593 15.7848 0.00683594C19.6594 0.065854 23.4974 0.767202 27.1425 2.08233C28.2094 2.46454 29.1321 3.1669 29.7847 4.0934C30.4373 5.01988 30.7878 6.12529 30.7884 7.25856V18.7913ZM15.7923 28.0003C16.458 28.0003 17.1146 27.8456 17.7103 27.5484H17.7003C19.1506 26.7932 20.3409 26.118 21.2511 25.5429C23.3766 24.1976 24.2118 23.4374 25.037 22.4772C25.8622 21.5169 26.7874 20.4367 26.7874 18.7913V7.25356C26.7866 6.94403 26.69 6.64231 26.5109 6.3898C26.3318 6.13734 26.0791 5.9464 25.7872 5.84322C22.577 4.6844 19.1973 4.06423 15.7848 4.00779C12.3717 4.06662 8.99185 4.69019 5.78244 5.85322C5.49059 5.9564 5.23781 6.14734 5.05874 6.3998C4.87966 6.65231 4.78307 6.95404 4.7822 7.26356V18.7963C4.7822 20.4351 5.68845 21.4845 6.38043 22.2857L6.40759 22.3171C7.2978 23.3624 8.18801 24.1876 10.3335 25.5479C11.2387 26.118 12.434 26.7882 13.8744 27.5484C14.47 27.8456 15.1266 28.0003 15.7923 28.0003ZM14.5745 15.3955L19.3707 10.5994H19.3757C19.7511 10.224 20.2601 10.0131 20.791 10.0131C21.3219 10.0131 21.8309 10.224 22.2063 10.5994C22.5817 10.9747 22.7926 11.4838 22.7926 12.0147C22.7926 12.5455 22.5817 13.0546 22.2063 13.43L17.4102 18.2212C17.0005 18.632 16.5136 18.958 15.9777 19.1804C15.4418 19.4028 14.8672 19.5173 14.287 19.5173C13.7067 19.5173 13.1321 19.4028 12.5962 19.1804C12.0603 18.958 11.5735 18.632 11.1637 18.2212L9.37329 16.4307C9.17989 16.2466 9.02526 16.0257 8.91858 15.7809C8.81191 15.5361 8.75529 15.2725 8.75214 15.0055C8.74894 14.7385 8.79925 14.4736 8.90008 14.2263C9.0009 13.9791 9.15019 13.7545 9.33918 13.5659C9.52813 13.3772 9.75298 13.2283 10.0004 13.128C10.2478 13.0276 10.5129 12.9777 10.7798 12.9814C11.0468 12.985 11.3104 13.0421 11.555 13.1492C11.7996 13.2563 12.0202 13.4113 12.204 13.6051L13.9994 15.3955H14.4995H14.5745Z" fill="#F8FAFC"/>
</svg>
