<svg width="200" height="37" viewBox="0 0 200 37" fill="none" xmlns="http://www.w3.org/2000/svg">
<circle cx="21.0031" cy="32.1044" r="3.02457" fill="#F8FAFC"/>
<circle cx="34.2355" cy="32.1044" r="3.02457" fill="#F8FAFC"/>
<path d="M16.7615 21.5183L14.5605 24.3763C13.7947 25.3707 14.5036 26.8113 15.7587 26.8113H40.6625" stroke="#F8FAFC" stroke-width="2.94895" stroke-linecap="round"/>
<path d="M1.9104 3.74902H4.52268C5.49388 3.74902 6.40601 4.2154 6.97464 5.00273L8.52664 7.15166" stroke="#F8FAFC" stroke-width="2.94895" stroke-linecap="round"/>
<path d="M11.71 13.6969C11.2512 12.5479 12.2911 11.3641 13.4896 11.6711L25.7319 14.8063C25.9781 14.8693 26.2361 14.8693 26.4823 14.8063L38.7776 11.6575C39.966 11.3531 41.0032 12.516 40.5655 13.6621L37.7504 21.0325C37.5632 21.5226 37.1354 21.8807 36.6199 21.9786L26.3918 23.922C26.2037 23.9577 26.0106 23.9574 25.8226 23.9211L15.7652 21.9778C15.2597 21.8801 14.8386 21.5319 14.6476 21.0538L11.71 13.6969Z" fill="#F8FAFC"/>
<path fill-rule="evenodd" clip-rule="evenodd" d="M5.76038 7.18386C3.65182 7.85391 3.65181 10.8376 5.76038 11.5076L25.7515 17.8604C26.2043 18.0043 26.6908 18.0023 27.1424 17.8549L46.6041 11.5022C48.6901 10.8213 48.6901 7.87023 46.6041 7.18931L27.1424 0.83658C26.6908 0.689157 26.2043 0.687253 25.7515 0.831132L5.76038 7.18386ZM46.2715 8.85077C46.1656 8.44695 45.7524 8.20511 45.3486 8.31073L26.4531 13.2639C26.2017 13.3298 25.9369 13.3298 25.6855 13.2639L6.79001 8.31073C6.38615 8.20504 5.97302 8.44691 5.86716 8.85077C5.76147 9.25462 6.00334 9.66775 6.4072 9.77362L25.3027 14.7267C25.8053 14.8584 26.3333 14.8584 26.8359 14.7267L45.7314 9.77362C46.1353 9.66776 46.3771 9.25461 46.2715 8.85077Z" fill="#F8FAFC"/>
<path d="M47.2222 14.9022V9.42017" stroke="#F8FAFC" stroke-width="1.89035" stroke-linecap="round"/>
<path d="M61.1593 28.6232C59.8066 28.6232 58.5892 28.459 57.5071 28.1305C56.425 27.7826 55.3912 27.1836 54.4057 26.3334C54.1544 26.1208 53.9612 25.8793 53.8259 25.6087C53.6907 25.3382 53.623 25.0677 53.623 24.7971C53.623 24.3527 53.7776 23.9662 54.0868 23.6377C54.4153 23.2899 54.8211 23.116 55.3042 23.116C55.6714 23.116 55.9999 23.2319 56.2897 23.4638C57.024 24.0628 57.7487 24.517 58.4636 24.8261C59.1979 25.1353 60.0965 25.2899 61.1593 25.2899C61.8742 25.2899 62.5313 25.1836 63.1303 24.9711C63.7293 24.7392 64.2124 24.4396 64.5796 24.0725C64.9467 23.686 65.1303 23.2512 65.1303 22.7682C65.1303 22.1884 64.9564 21.6957 64.6086 21.2899C64.2607 20.8841 63.7293 20.5459 63.0144 20.2754C62.2994 19.9855 61.3912 19.7633 60.2897 19.6087C59.2462 19.4541 58.3284 19.2222 57.5361 18.9131C56.7438 18.5846 56.0772 18.1788 55.5361 17.6957C55.0144 17.1933 54.6182 16.6136 54.3477 15.9566C54.0772 15.2802 53.9419 14.5266 53.9419 13.6957C53.9419 12.4396 54.2607 11.3672 54.8984 10.4783C55.5554 9.58941 56.4346 8.91308 57.5361 8.44931C58.6375 7.98555 59.8549 7.75366 61.1883 7.75366C62.4443 7.75366 63.6037 7.9469 64.6665 8.33337C65.7487 8.70052 66.6279 9.17395 67.3042 9.75366C67.8646 10.1981 68.1448 10.7102 68.1448 11.2899C68.1448 11.715 67.9805 12.1015 67.652 12.4493C67.3235 12.7971 66.9371 12.9711 66.4926 12.9711C66.2028 12.9711 65.9419 12.8841 65.71 12.7102C65.4008 12.4396 64.9854 12.1884 64.4636 11.9566C63.9419 11.7054 63.3912 11.5025 62.8115 11.3479C62.2317 11.174 61.6907 11.087 61.1883 11.087C60.3574 11.087 59.652 11.1933 59.0723 11.4058C58.5119 11.6184 58.0868 11.9083 57.797 12.2754C57.5071 12.6425 57.3622 13.0677 57.3622 13.5508C57.3622 14.1305 57.5264 14.6136 57.8549 15C58.2028 15.3672 58.6955 15.6667 59.3332 15.8986C59.9709 16.1112 60.7342 16.3044 61.623 16.4783C62.7825 16.6909 63.797 16.9421 64.6665 17.2319C65.5554 17.5218 66.2897 17.8986 66.8694 18.3624C67.4491 18.8068 67.8839 19.3769 68.1738 20.0725C68.4636 20.7488 68.6086 21.5797 68.6086 22.5653C68.6086 23.8213 68.2607 24.9034 67.5651 25.8116C66.8694 26.7199 65.9516 27.4155 64.8115 27.8986C63.6907 28.3817 62.4733 28.6232 61.1593 28.6232ZM83.7587 12.5363C84.2611 12.5363 84.6766 12.7005 85.0051 13.029C85.3336 13.3575 85.4978 13.7826 85.4978 14.3044V26.5653C85.4978 27.0677 85.3336 27.4928 85.0051 27.8406C84.6766 28.1691 84.2611 28.3334 83.7587 28.3334C83.2563 28.3334 82.8408 28.1691 82.5123 27.8406C82.1838 27.4928 82.0196 27.0677 82.0196 26.5653V25.145L82.6572 25.4058C82.6572 25.657 82.522 25.9662 82.2515 26.3334C81.9809 26.6812 81.6138 27.029 81.15 27.3769C80.6862 27.7247 80.1355 28.0242 79.4978 28.2754C78.8795 28.5073 78.2031 28.6232 77.4688 28.6232C76.1355 28.6232 74.9278 28.2851 73.8457 27.6087C72.7635 26.9131 71.9036 25.9662 71.2659 24.7682C70.6476 23.5508 70.3384 22.1595 70.3384 20.5942C70.3384 19.0097 70.6476 17.6184 71.2659 16.4203C71.9036 15.2029 72.7538 14.2561 73.8167 13.5797C74.8795 12.8841 76.0582 12.5363 77.3529 12.5363C78.1838 12.5363 78.9471 12.6619 79.6428 12.9131C80.3384 13.1643 80.9374 13.4831 81.4399 13.8696C81.9616 14.2561 82.3577 14.6522 82.6283 15.058C82.9181 15.4445 83.063 15.773 83.063 16.0435L82.0196 16.4203V14.3044C82.0196 13.802 82.1838 13.3865 82.5123 13.058C82.8408 12.7102 83.2563 12.5363 83.7587 12.5363ZM77.9036 25.4348C78.7538 25.4348 79.4978 25.2222 80.1355 24.7971C80.7732 24.372 81.2659 23.7923 81.6138 23.058C81.9809 22.3237 82.1645 21.5025 82.1645 20.5942C82.1645 19.6667 81.9809 18.8358 81.6138 18.1015C81.2659 17.3672 80.7732 16.7875 80.1355 16.3624C79.4978 15.9372 78.7538 15.7247 77.9036 15.7247C77.0727 15.7247 76.3384 15.9372 75.7007 16.3624C75.063 16.7875 74.5606 17.3672 74.1935 18.1015C73.8457 18.8358 73.6717 19.6667 73.6717 20.5942C73.6717 21.5025 73.8457 22.3237 74.1935 23.058C74.5606 23.7923 75.063 24.372 75.7007 24.7971C76.3384 25.2222 77.0727 25.4348 77.9036 25.4348ZM96.9741 12.5363C98.4038 12.5363 99.4861 12.8358 100.221 13.4348C100.974 14.0338 101.486 14.8358 101.757 15.8406C102.047 16.8261 102.192 17.9276 102.192 19.145V26.5653C102.192 27.0677 102.027 27.4928 101.699 27.8406C101.37 28.1691 100.955 28.3334 100.452 28.3334C99.9499 28.3334 99.5343 28.1691 99.206 27.8406C98.8774 27.4928 98.7133 27.0677 98.7133 26.5653V19.145C98.7133 18.5073 98.6263 17.9372 98.4524 17.4348C98.2977 16.9131 98.0078 16.4976 97.5828 16.1884C97.1575 15.8793 96.5488 15.7247 95.7567 15.7247C94.9836 15.7247 94.3267 15.8793 93.7857 16.1884C93.264 16.4976 92.8582 16.9131 92.5683 17.4348C92.2977 17.9372 92.1625 18.5073 92.1625 19.145V26.5653C92.1625 27.0677 91.998 27.4928 91.6698 27.8406C91.3412 28.1691 90.9256 28.3334 90.4234 28.3334C89.9209 28.3334 89.5054 28.1691 89.177 27.8406C88.8484 27.4928 88.6842 27.0677 88.6842 26.5653V14.5942C88.6842 14.0918 88.8484 13.6764 89.177 13.3479C89.5054 13 89.9209 12.8261 90.4234 12.8261C90.9256 12.8261 91.3412 13 91.6698 13.3479C91.998 13.6764 92.1625 14.0918 92.1625 14.5942V15.8406L91.7278 15.7537C91.9017 15.4251 92.1528 15.0773 92.4814 14.7102C92.8096 14.3237 93.1962 13.9662 93.6408 13.6377C94.085 13.3092 94.5875 13.0483 95.148 12.8551C95.7082 12.6425 96.3169 12.5363 96.9741 12.5363Z" fill="#F8FAFC"/>
<path d="M107.487 8.01447C107.758 8.01447 108.038 8.09176 108.328 8.24635C108.637 8.38162 108.869 8.56519 109.023 8.79708L116.067 19.6377L114.618 19.5797L121.835 8.79708C122.202 8.27534 122.676 8.01447 123.255 8.01447C123.719 8.01447 124.135 8.17872 124.502 8.50722C124.869 8.83572 125.052 9.26084 125.052 9.78258V26.5652C125.052 27.0676 124.888 27.4927 124.56 27.8406C124.231 28.1691 123.796 28.3333 123.255 28.3333C122.714 28.3333 122.27 28.1691 121.922 27.8406C121.593 27.4927 121.429 27.0676 121.429 26.5652V12.913L122.56 13.1739L116.647 22.1884C116.473 22.401 116.251 22.5845 115.98 22.7391C115.729 22.8937 115.468 22.9613 115.197 22.942C114.946 22.9613 114.685 22.8937 114.415 22.7391C114.164 22.5845 113.951 22.401 113.777 22.1884L108.241 13.4348L108.994 11.8985V26.5652C108.994 27.0676 108.84 27.4927 108.531 27.8406C108.222 28.1691 107.816 28.3333 107.313 28.3333C106.83 28.3333 106.434 28.1691 106.125 27.8406C105.816 27.4927 105.661 27.0676 105.661 26.5652V9.78258C105.661 9.29949 105.835 8.88403 106.183 8.53621C106.55 8.18838 106.985 8.01447 107.487 8.01447ZM141.236 12.5362C141.739 12.5362 142.154 12.7004 142.483 13.029C142.811 13.3575 142.975 13.7826 142.975 14.3043V26.5652C142.975 27.0676 142.811 27.4927 142.483 27.8406C142.154 28.1691 141.739 28.3333 141.236 28.3333C140.734 28.3333 140.318 28.1691 139.99 27.8406C139.661 27.4927 139.497 27.0676 139.497 26.5652V25.1449L140.135 25.4058C140.135 25.657 140 25.9662 139.729 26.3333C139.458 26.6811 139.091 27.029 138.627 27.3768C138.164 27.7246 137.613 28.0241 136.975 28.2753C136.357 28.5072 135.681 28.6232 134.946 28.6232C133.613 28.6232 132.405 28.285 131.323 27.6087C130.241 26.913 129.381 25.9662 128.743 24.7681C128.125 23.5507 127.816 22.1594 127.816 20.5942C127.816 19.0096 128.125 17.6183 128.743 16.4203C129.381 15.2029 130.231 14.256 131.294 13.5797C132.357 12.884 133.536 12.5362 134.83 12.5362C135.661 12.5362 136.425 12.6618 137.12 12.913C137.816 13.1642 138.415 13.4831 138.917 13.8695C139.439 14.256 139.835 14.6521 140.106 15.0579C140.396 15.4444 140.54 15.7729 140.54 16.0435L139.497 16.4203V14.3043C139.497 13.8019 139.661 13.3865 139.99 13.0579C140.318 12.7101 140.734 12.5362 141.236 12.5362ZM135.381 25.4348C136.231 25.4348 136.975 25.2222 137.613 24.7971C138.251 24.372 138.743 23.7923 139.091 23.0579C139.458 22.3236 139.642 21.5024 139.642 20.5942C139.642 19.6666 139.458 18.8357 139.091 18.1014C138.743 17.3671 138.251 16.7874 137.613 16.3623C136.975 15.9372 136.231 15.7246 135.381 15.7246C134.55 15.7246 133.816 15.9372 133.178 16.3623C132.54 16.7874 132.038 17.3671 131.671 18.1014C131.323 18.8357 131.149 19.6666 131.149 20.5942C131.149 21.5024 131.323 22.3236 131.671 23.0579C132.038 23.7923 132.54 24.372 133.178 24.7971C133.816 25.2222 134.55 25.4348 135.381 25.4348ZM147.901 28.3333C147.398 28.3333 146.983 28.1691 146.654 27.8406C146.326 27.4927 146.161 27.0676 146.161 26.5652V14.5942C146.161 14.0918 146.326 13.6763 146.654 13.3478C146.983 13 147.398 12.8261 147.901 12.8261C148.403 12.8261 148.819 13 149.147 13.3478C149.476 13.6763 149.64 14.0918 149.64 14.5942V17.3188L149.437 15.3768C149.65 14.913 149.92 14.5072 150.248 14.1594C150.596 13.7923 150.983 13.4927 151.408 13.2608C151.833 13.0096 152.287 12.8261 152.77 12.7101C153.254 12.5942 153.736 12.5362 154.219 12.5362C154.799 12.5362 155.283 12.7004 155.669 13.029C156.075 13.3575 156.277 13.7439 156.277 14.1884C156.277 14.8261 156.113 15.2898 155.785 15.5797C155.456 15.8502 155.099 15.9855 154.712 15.9855C154.345 15.9855 154.007 15.9178 153.698 15.7826C153.408 15.6473 153.07 15.5797 152.683 15.5797C152.335 15.5797 151.978 15.6666 151.611 15.8406C151.263 15.9952 150.935 16.2464 150.625 16.5942C150.335 16.942 150.094 17.3768 149.901 17.8985C149.727 18.401 149.64 19 149.64 19.6956V26.5652C149.64 27.0676 149.476 27.4927 149.147 27.8406C148.819 28.1691 148.403 28.3333 147.901 28.3333ZM160.179 28.3333C159.676 28.3333 159.261 28.1691 158.933 27.8406C158.604 27.4927 158.44 27.0676 158.44 26.5652V8.65215C158.44 8.14973 158.604 7.73427 158.933 7.40577C159.261 7.05795 159.676 6.88403 160.179 6.88403C160.681 6.88403 161.097 7.05795 161.425 7.40577C161.754 7.73427 161.918 8.14973 161.918 8.65215V26.5652C161.918 27.0676 161.754 27.4927 161.425 27.8406C161.097 28.1691 160.681 28.3333 160.179 28.3333ZM169.396 12.8261C169.84 12.8261 170.227 13.0096 170.556 13.3768C170.884 13.7439 171.048 14.1014 171.048 14.4493C171.048 14.913 170.817 15.3478 170.353 15.7536L161.628 23.7826L161.483 19.7826L168.121 13.3768C168.488 13.0096 168.913 12.8261 169.396 12.8261ZM169.831 28.3043C169.329 28.3043 168.904 28.1111 168.556 27.7246L163.193 22.0435L165.831 19.6087L171.048 25.2898C171.415 25.6763 171.599 26.1111 171.599 26.5942C171.599 27.0966 171.396 27.512 170.99 27.8406C170.604 28.1497 170.217 28.3043 169.831 28.3043ZM180.726 28.6232C179.083 28.6232 177.654 28.285 176.436 27.6087C175.238 26.913 174.31 25.9758 173.654 24.7971C173.016 23.6183 172.697 22.285 172.697 20.7971C172.697 19.0579 173.045 17.5797 173.74 16.3623C174.455 15.1256 175.383 14.1787 176.523 13.5217C177.663 12.8647 178.871 12.5362 180.146 12.5362C181.132 12.5362 182.059 12.7391 182.929 13.1449C183.818 13.5507 184.6 14.1111 185.277 14.8261C185.953 15.5217 186.484 16.3333 186.871 17.2608C187.277 18.1884 187.48 19.1739 187.48 20.2174C187.46 20.6811 187.277 21.0579 186.929 21.3478C186.581 21.6377 186.175 21.7826 185.711 21.7826H174.639L173.769 18.884H184.407L183.769 19.4637V18.6811C183.731 18.1207 183.528 17.6183 183.161 17.1739C182.813 16.7294 182.368 16.3816 181.827 16.1304C181.306 15.8599 180.745 15.7246 180.146 15.7246C179.567 15.7246 179.025 15.8019 178.523 15.9565C178.021 16.1111 177.586 16.372 177.219 16.7391C176.851 17.1062 176.561 17.599 176.349 18.2174C176.136 18.8357 176.03 19.6183 176.03 20.5652C176.03 21.6087 176.243 22.4975 176.668 23.2319C177.112 23.9468 177.673 24.4975 178.349 24.884C179.045 25.2512 179.779 25.4348 180.552 25.4348C181.267 25.4348 181.837 25.3768 182.262 25.2608C182.687 25.1449 183.025 25.0096 183.277 24.855C183.547 24.6811 183.789 24.5362 184.001 24.4203C184.349 24.2464 184.677 24.1594 184.987 24.1594C185.412 24.1594 185.76 24.3043 186.03 24.5942C186.32 24.884 186.465 25.2222 186.465 25.6087C186.465 26.1304 186.194 26.6039 185.654 27.029C185.151 27.4541 184.446 27.8309 183.538 28.1594C182.629 28.4686 181.692 28.6232 180.726 28.6232ZM190.113 13.1159H196.982C197.446 13.1159 197.833 13.2705 198.142 13.5797C198.451 13.8889 198.605 14.2753 198.605 14.7391C198.605 15.1836 198.451 15.5604 198.142 15.8695C197.833 16.1594 197.446 16.3043 196.982 16.3043H190.113C189.649 16.3043 189.263 16.1497 188.953 15.8406C188.644 15.5314 188.489 15.1449 188.489 14.6811C188.489 14.2367 188.644 13.8695 188.953 13.5797C189.263 13.2705 189.649 13.1159 190.113 13.1159ZM193.214 9.49273C193.717 9.49273 194.122 9.66664 194.431 10.0145C194.76 10.343 194.924 10.7584 194.924 11.2608V24.1594C194.924 24.4299 194.973 24.6521 195.069 24.8261C195.185 25 195.33 25.1256 195.504 25.2029C195.697 25.2802 195.9 25.3188 196.113 25.3188C196.344 25.3188 196.557 25.2802 196.75 25.2029C196.944 25.1062 197.166 25.0579 197.417 25.0579C197.688 25.0579 197.929 25.1836 198.142 25.4348C198.373 25.686 198.489 26.0338 198.489 26.4782C198.489 27.0193 198.19 27.4637 197.591 27.8116C197.011 28.1594 196.383 28.3333 195.707 28.3333C195.301 28.3333 194.847 28.3043 194.344 28.2463C193.861 28.1691 193.398 28.0048 192.953 27.7536C192.528 27.4831 192.171 27.0773 191.881 26.5362C191.591 25.9952 191.446 25.2512 191.446 24.3043V11.2608C191.446 10.7584 191.61 10.343 191.939 10.0145C192.286 9.66664 192.712 9.49273 193.214 9.49273Z" fill="#F8FAFC"/>
</svg>
